<?xml version="1.0" encoding="UTF-8" standalone="no"?>
<svg width="99px" height="31px" viewBox="0 0 99 31" version="1.1" xmlns="http://www.w3.org/2000/svg" xmlns:xlink="http://www.w3.org/1999/xlink" xmlns:sketch="http://www.bohemiancoding.com/sketch/ns">
    <!-- Generator: Sketch 3.4.4 (17249) - http://www.bohemiancoding.com/sketch -->
    <title>insurify + Path + Path</title>
    <desc>Created with Sketch.</desc>
    <defs></defs>
    <g id="Logos" stroke="none" stroke-width="1" fill="none" fill-rule="evenodd" sketch:type="MSPage">
        <g id="logo-copy-3" sketch:type="MSArtboardGroup" transform="translate(-25.000000, -26.000000)" fill="#3FC4FF">
            <g id="insurify-+-Path-+-Path" sketch:type="MSLayerGroup" transform="translate(25.000000, 26.000000)">
                <path d="M5.39755299,8.16652064 L5.39755299,24.7297851 L1.41609928,24.7297851 L1.41609928,8.16652064 L5.39755299,8.16652064 Z M7.63269638,24.7297851 L7.63269638,8.16652064 L10.0667025,8.16652064 C10.5825209,8.16652064 10.9210217,8.40867121 11.082215,8.89297961 L11.3562422,10.2006057 C11.6893749,9.85620867 12.0413083,9.54410349 12.4120528,9.26428086 C12.7827973,8.98445823 13.1750283,8.74230766 13.5887577,8.53782189 C14.0024871,8.33333612 14.4457619,8.17728353 14.9185955,8.06965945 C15.3914291,7.96203536 15.9072398,7.90822412 16.4660431,7.90822412 C17.3687254,7.90822412 18.1693066,8.06158615 18.8678107,8.3683148 C19.5663148,8.67504345 20.1492884,9.10553335 20.6167489,9.65979741 C21.0842093,10.2140615 21.4388292,10.8759397 21.6806191,11.6454519 C21.922409,12.4149642 22.0433021,13.2624911 22.0433021,14.1880583 L22.0433021,24.7297851 L18.0618484,24.7297851 L18.0618484,14.1880583 C18.0618484,13.1763919 17.8281217,12.3934384 17.3606612,11.8391743 C16.8932008,11.2849103 16.1920206,11.0077824 15.2570996,11.0077824 C14.5693417,11.0077824 13.9245783,11.163835 13.3227901,11.4759448 C12.721002,11.7880547 12.151461,12.2131635 11.6141501,12.7512839 L11.6141501,24.7297851 L7.63269638,24.7297851 Z M34.2688154,11.3952272 C34.1613532,11.5674257 34.0485196,11.688501 33.9303112,11.7584566 C33.8121029,11.8284123 33.6616581,11.8633896 33.4789724,11.8633896 C33.2855404,11.8633896 33.0786789,11.8095784 32.8583814,11.7019543 C32.6380839,11.5943302 32.3828651,11.4732549 32.0927172,11.3387248 C31.8025694,11.2041947 31.4721281,11.0831194 31.1013836,10.9754953 C30.7306391,10.8678712 30.2927373,10.81406 29.7876651,10.81406 C29.0031912,10.81406 28.385293,10.9808748 27.9339518,11.3145095 C27.4826107,11.6481442 27.2569435,12.0840152 27.2569435,12.6221356 C27.2569435,12.9772951 27.3724636,13.2759475 27.6035073,13.5181017 C27.834551,13.7602559 28.1408136,13.9728103 28.5223043,14.1557712 C28.903795,14.3387322 29.3363238,14.5028565 29.8199036,14.648149 C30.3034834,14.7934415 30.797802,14.9521846 31.3028742,15.1243832 C31.8079464,15.2965817 32.302265,15.4929927 32.7858448,15.7136221 C33.2694246,15.9342515 33.7019534,16.2140699 34.0834441,16.5530858 C34.4649348,16.8921017 34.7711974,17.2983765 35.0022411,17.7719225 C35.2332848,18.2454685 35.3488049,18.8158676 35.3488049,19.483137 C35.3488049,20.2795552 35.2037331,21.0140786 34.9135852,21.6867292 C34.6234374,22.3593797 34.1989681,22.9405411 33.6401648,23.4302307 C33.0813615,23.9199203 32.3909274,24.3019801 31.5688417,24.5764215 C30.7467561,24.850863 29.8037896,24.9880816 28.7399141,24.9880816 C28.1703646,24.9880816 27.6142562,24.9369609 27.0715722,24.834718 C26.5288882,24.7324752 26.0077044,24.5898754 25.5080053,24.4069144 C25.0083062,24.2239535 24.5462258,24.0087085 24.1217502,23.7611731 C23.6972746,23.5136377 23.3238491,23.2445815 23.0014626,22.9539965 L23.9202596,21.4365044 C24.038468,21.2535435 24.1781667,21.1136343 24.33936,21.0167726 C24.5005533,20.9199109 24.7047283,20.8714808 24.9518913,20.8714808 C25.1990543,20.8714808 25.4327811,20.9414354 25.6530785,21.0813467 C25.873376,21.221258 26.1285948,21.3719295 26.4187427,21.5333656 C26.7088906,21.6948018 27.0500779,21.8454732 27.4423148,21.9853845 C27.8345518,22.1252959 28.3315569,22.1952505 28.9333451,22.1952505 C29.4061786,22.1952505 29.8118423,22.1387487 30.1503481,22.0257434 C30.488854,21.9127381 30.7682514,21.7647572 30.9885489,21.5817962 C31.2088463,21.3988353 31.3700372,21.1862809 31.4721263,20.9441267 C31.5742153,20.7019725 31.6252591,20.4517502 31.6252591,20.1934524 C31.6252591,19.8060057 31.509739,19.4885194 31.2786953,19.240984 C31.0476516,18.9934486 30.741389,18.7782037 30.3598983,18.5952427 C29.9784076,18.4122817 29.5431923,18.2481575 29.0542394,18.102865 C28.5652865,17.9575724 28.0655949,17.7988293 27.5551495,17.6266307 C27.0447042,17.4544322 26.5450126,17.2526401 26.0560597,17.0212483 C25.5671068,16.7898565 25.1318915,16.4965852 24.7504008,16.1414257 C24.36891,15.7862663 24.0626474,15.3503952 23.8316038,14.8337996 C23.6005601,14.317204 23.48504,13.6929936 23.48504,12.9611498 C23.48504,12.2831181 23.6193657,11.6373832 23.8880211,11.0239259 C24.1566766,10.4104686 24.5515941,9.8750468 25.0727857,9.41764442 C25.5939772,8.96024204 26.2441136,8.59432563 27.0232144,8.3198842 C27.8023152,8.04544278 28.7022974,7.90822412 29.7231881,7.90822412 C30.8622872,7.90822412 31.8992816,8.09656345 32.8342025,8.47324776 C33.7691235,8.84993207 34.5482126,9.34499545 35.1714932,9.95845276 L34.2688154,11.3952272 Z M40.675281,8.16652064 L40.675281,18.6921039 C40.675281,19.7037703 40.9090077,20.4867238 41.3764682,21.0409879 C41.8439286,21.5952519 42.5451088,21.8723798 43.4800297,21.8723798 C44.1677877,21.8723798 44.812551,21.7190178 45.4143392,21.4122891 C46.0161274,21.1055605 46.5856684,20.6831423 47.1229793,20.1450218 L47.1229793,8.16652064 L51.104433,8.16652064 L51.104433,24.7297851 L48.6704269,24.7297851 C48.1546084,24.7297851 47.8161077,24.4876345 47.6549144,24.0033261 L47.3808872,22.6795564 C47.0370083,23.0239535 46.6823884,23.3387493 46.317017,23.6239531 C45.9516456,23.9091569 45.562101,24.1513075 45.1483717,24.3504121 C44.7346423,24.5495166 44.288681,24.7055692 43.8104743,24.8185745 C43.3322676,24.9315798 42.8191434,24.9880816 42.2710863,24.9880816 C41.368404,24.9880816 40.5705093,24.8347196 39.8773783,24.5279909 C39.1842473,24.2212623 38.6012737,23.7880818 38.1284401,23.2284366 C37.6556066,22.6687913 37.2983002,22.0042225 37.0565103,21.2347103 C36.8147204,20.465198 36.6938273,19.6176711 36.6938273,18.6921039 L36.6938273,8.16652064 L40.675281,8.16652064 Z M53.0977877,24.7297851 L53.0977877,8.16652064 L55.4350783,8.16652064 C55.8434346,8.16652064 56.1282051,8.24185637 56.2893984,8.3925301 C56.4505916,8.54320382 56.5580522,8.80149776 56.6117833,9.16741966 L56.853572,11.1692177 C57.4446139,10.1467889 58.1377346,9.3396203 58.9329547,8.74768782 C59.7281748,8.15575533 60.6200975,7.85979352 61.6087495,7.85979352 C62.425462,7.85979352 63.1024636,8.04813285 63.6397744,8.42481716 L63.1239586,11.4113707 C63.0917199,11.6050941 63.0218706,11.7423127 62.9144084,11.8230308 C62.8069462,11.9037488 62.6618744,11.9441073 62.4791887,11.9441073 C62.3179955,11.9441073 62.0977013,11.9064394 61.8182997,11.8311025 C61.538898,11.7557657 61.1681591,11.7180978 60.7060717,11.7180978 C59.878613,11.7180978 59.1693732,11.9467956 58.5783313,12.4041979 C57.9872893,12.8616003 57.4875977,13.5315502 57.0792414,14.4140678 L57.0792414,24.7297851 L53.0977877,24.7297851 Z M68.998489,8.16652064 L68.998489,24.7297851 L65.0170353,24.7297851 L65.0170353,8.16652064 L68.998489,8.16652064 Z M72.6969213,24.7297851 L72.6969213,11.1692177 L71.2623084,10.9432082 C70.9506681,10.8893962 70.7008223,10.7817737 70.5127635,10.6203376 C70.3247047,10.4589015 70.2306767,10.2328943 70.2306767,9.94230923 L70.2306767,8.31181244 L72.6969213,8.31181244 L72.6969213,7.08490396 C72.6969213,6.13781198 72.8393065,5.28759443 73.1240813,4.53422581 C73.4088561,3.78085719 73.8172062,3.14050346 74.349144,2.61314543 C74.8810818,2.08578739 75.5285317,1.68220311 76.2915131,1.40238048 C77.0544945,1.12255785 77.9141791,0.982648636 78.8705924,0.982648636 C79.6335739,0.982648636 80.3428136,1.08488999 80.9983329,1.28937576 L80.9177366,3.2911738 C80.8962442,3.60328365 80.7511724,3.79700411 80.482517,3.87234097 C80.2138616,3.94767783 79.9022259,3.9853457 79.5476008,3.9853457 C79.0747672,3.9853457 78.6529845,4.03646637 78.28224,4.13870926 C77.9114954,4.24095214 77.5971733,4.41852923 77.3392641,4.67144583 C77.0813549,4.92436244 76.8852393,5.25799211 76.7509116,5.67234486 C76.6165839,6.0866976 76.549421,6.60059491 76.549421,7.21405222 L76.549421,8.31181244 L80.8532597,8.31181244 L80.8532597,11.1530742 L76.678375,11.1530742 L76.678375,24.7297851 L72.6969213,24.7297851 Z M89.8161412,29.2822613 C89.6979328,29.5620839 89.5448015,29.7746383 89.3567427,29.9199308 C89.1686839,30.0652233 88.8812269,30.1378685 88.494363,30.1378685 L85.5284218,30.1378685 L88.623317,23.5028766 L81.93383,8.16652064 L85.4155871,8.16652064 C85.7379736,8.16652064 85.9851329,8.24185637 86.1570724,8.3925301 C86.3290119,8.54320382 86.4579645,8.71539978 86.5439343,8.90912314 L90.0740491,17.4974825 C90.1922575,17.7773051 90.294345,18.0678858 90.3803148,18.3692332 C90.4662845,18.6705807 90.5415069,18.9719236 90.6059842,19.2732711 C90.691954,18.9611612 90.785982,18.6598183 90.888071,18.3692332 C90.9901601,18.0786482 91.1003072,17.7826864 91.2185156,17.481339 L94.5390802,8.90912314 C94.6250499,8.69387496 94.7674352,8.51629788 94.9662402,8.37638657 C95.1650452,8.23647525 95.3880259,8.16652064 95.6351889,8.16652064 L98.8267996,8.16652064 L89.8161412,29.2822613 Z" id="insurify" sketch:type="MSShapeGroup"></path>
                <path d="M6.75164999,3.34142856 C6.75164999,3.78803744 6.66107039,4.20672698 6.47990849,4.59750976 C6.29874659,4.98829253 6.05836229,5.33022232 5.75874837,5.6233094 C5.45913446,5.91639648 5.10726758,6.15016481 4.70313718,6.3246214 C4.29900679,6.499078 3.86701181,6.58630499 3.40713929,6.58630499 C2.9612023,6.58630499 2.53965881,6.499078 2.14249618,6.3246214 C1.74533355,6.15016481 1.40043433,5.91639648 1.10778818,5.6233094 C0.815142033,5.33022232 0.581725391,4.98829253 0.407531255,4.59750976 C0.233337118,4.20672698 0.146241356,3.78803744 0.146241356,3.34142856 C0.146241356,2.88086315 0.233337118,2.44821729 0.407531255,2.04347799 C0.581725391,1.63873869 0.815142033,1.28983073 1.10778818,0.996743656 C1.40043433,0.703656577 1.74533355,0.469888248 2.14249618,0.295431654 C2.53965881,0.120975059 2.9612023,0.0337480708 3.40713929,0.0337480708 C3.86701181,0.0337480708 4.29900679,0.120975059 4.70313718,0.295431654 C5.10726758,0.469888248 5.45913446,0.703656577 5.75874837,0.996743656 C6.05836229,1.28983073 6.29874659,1.63873869 6.47990849,2.04347799 C6.66107039,2.44821729 6.75164999,2.88086315 6.75164999,3.34142856 L6.75164999,3.34142856 Z" id="Path" sketch:type="MSShapeGroup"></path>
                <path d="M70.352586,3.34142856 C70.352586,3.78803744 70.2620064,4.20672698 70.0808445,4.59750976 C69.8996826,4.98829253 69.6592983,5.33022232 69.3596844,5.6233094 C69.0600705,5.91639648 68.7082036,6.15016481 68.3040732,6.3246214 C67.8999428,6.499078 67.4679478,6.58630499 67.0080753,6.58630499 C66.5621383,6.58630499 66.1405948,6.499078 65.7434322,6.3246214 C65.3462696,6.15016481 65.0013704,5.91639648 64.7087242,5.6233094 C64.4160781,5.33022232 64.1826614,4.98829253 64.0084673,4.59750976 C63.8342731,4.20672698 63.7471774,3.78803744 63.7471774,3.34142856 C63.7471774,2.88086315 63.8342731,2.44821729 64.0084673,2.04347799 C64.1826614,1.63873869 64.4160781,1.28983073 64.7087242,0.996743656 C65.0013704,0.703656577 65.3462696,0.469888248 65.7434322,0.295431654 C66.1405948,0.120975059 66.5621383,0.0337480708 67.0080753,0.0337480708 C67.4679478,0.0337480708 67.8999428,0.120975059 68.3040732,0.295431654 C68.7082036,0.469888248 69.0600705,0.703656577 69.3596844,0.996743656 C69.6592983,1.28983073 69.8996826,1.63873869 70.0808445,2.04347799 C70.2620064,2.44821729 70.352586,2.88086315 70.352586,3.34142856 L70.352586,3.34142856 Z" id="Path" sketch:type="MSShapeGroup"></path>
            </g>
        </g>
    </g>
</svg>